<?xml version="1.0" encoding="utf-8"?>
<!-- Generator: Adobe Illustrator 23.0.4, SVG Export Plug-In . SVG Version: 6.00 Build 0)  -->
<svg version="1.1" id="Layer_1" xmlns="http://www.w3.org/2000/svg" xmlns:xlink="http://www.w3.org/1999/xlink" x="0px" y="0px"
	 viewBox="0 0 505.5 505.5" style="enable-background:new 0 0 505.5 505.5;" xml:space="preserve">
<style type="text/css">
	.st0{clip-path:url(#SVGID_2_);}
	.st1{clip-path:url(#SVGID_4_);}
	.st2{clip-path:url(#SVGID_6_);}
	.st3{fill:#204BFF;}
	.st4{clip-path:url(#SVGID_8_);}
	.st5{clip-path:url(#SVGID_10_);}
	.st6{clip-path:url(#SVGID_12_);}
	.st7{clip-path:url(#SVGID_14_);}
	.st8{clip-path:url(#SVGID_16_);}
	.st9{clip-path:url(#SVGID_18_);}
	.st10{clip-path:url(#SVGID_20_);}
	.st11{clip-path:url(#SVGID_22_);}
	.st12{clip-path:url(#SVGID_24_);}
	.st13{opacity:0.45;}
	.st14{clip-path:url(#SVGID_26_);}
	.st15{clip-path:url(#SVGID_28_);}
</style>
<title>instagram-hover</title>
<g>
	<defs>
		<path id="SVGID_1_" d="M169.6,252.8c0-45.9,37.2-83.2,83.2-83.2s83.2,37.2,83.2,83.2c0,45.9-37.2,83.2-83.2,83.2c0,0,0,0,0,0
			C206.8,335.9,169.6,298.7,169.6,252.8C169.6,252.8,169.6,252.8,169.6,252.8 M124.6,252.8c0,70.8,57.4,128.1,128.1,128.1
			s128.1-57.4,128.1-128.1s-57.4-128.1-128.1-128.1c0,0,0,0,0,0C182,124.6,124.6,182,124.6,252.8
			C124.6,252.7,124.6,252.7,124.6,252.8 M356,119.6c0,16.5,13.4,29.9,29.9,29.9s29.9-13.4,30-29.9S402.5,89.7,386,89.7c0,0,0,0,0,0
			C369.4,89.7,356,103.1,356,119.6 M152,455.8c-24.3-1.1-37.5-5.2-46.3-8.6c-10.8-4-20.6-10.4-28.7-18.7c-8.3-8-14.7-17.8-18.7-28.7
			c-3.4-8.8-7.5-22-8.6-46.3c-1.2-26.3-1.5-34.2-1.5-100.8s0.2-74.5,1.4-100.8c1.1-24.3,5.2-37.5,8.6-46.3C62.3,94.8,68.7,85,77,77
			c8-8.3,17.8-14.7,28.7-18.7c8.8-3.4,22-7.5,46.3-8.6c26.3-1.2,34.2-1.5,100.8-1.5s74.5,0.3,100.8,1.5c24.3,1.1,37.5,5.2,46.3,8.6
			c10.8,4,20.6,10.4,28.6,18.7c8.3,8,14.7,17.8,18.7,28.7c3.4,8.8,7.5,22,8.6,46.3c1.2,26.3,1.5,34.2,1.5,100.8s-0.2,74.5-1.5,100.8
			c-1.1,24.3-5.2,37.5-8.6,46.3c-8.4,21.8-25.6,39-47.4,47.4c-8.8,3.4-22,7.5-46.3,8.6c-26.3,1.2-34.2,1.5-100.8,1.5
			S178.3,457.1,152,455.8 M149.9,4.9c-26.5,1.1-44.7,5.4-60.5,11.5c-16.6,6.3-31.7,16.1-44.2,28.8C32.5,57.6,22.7,72.7,16.4,89.3
			c-6.2,15.9-10.4,34-11.6,60.6S3.3,185,3.3,252.8S3.6,329,4.8,355.6s5.4,44.7,11.6,60.5c6.3,16.6,16.1,31.7,28.8,44.2
			c12.5,12.7,27.5,22.5,44.2,28.8c15.9,6.2,34,10.4,60.6,11.6s35.1,1.5,102.9,1.5s76.2-0.3,102.9-1.5s44.7-5.4,60.6-11.6
			c33.5-13,60-39.5,73-73c6.2-15.9,10.4-34,11.6-60.5s1.5-35.1,1.5-102.9s-0.3-76.2-1.5-102.8s-5.4-44.7-11.6-60.6
			c-6.3-16.6-16.1-31.7-28.8-44.2c-12.5-12.7-27.5-22.5-44.2-28.8c-15.9-6.1-34-10.3-60.6-11.5s-35.1-1.5-102.9-1.5
			S176.5,3.6,149.9,4.9"/>
	</defs>
	<clipPath id="SVGID_2_">
		<use xlink:href="#SVGID_1_"  style="overflow:visible;"/>
	</clipPath>
	<g class="st0">
		<g>
			<g>
				<defs>
					<rect id="SVGID_3_" x="-1198.7" y="-1198.7" width="2904.3" height="2902.9"/>
				</defs>
				<clipPath id="SVGID_4_">
					<use xlink:href="#SVGID_3_"  style="overflow:visible;"/>
				</clipPath>
				<g class="st1">
					<g>
						<defs>
							<rect id="SVGID_5_" x="-1198.7" y="-1198.7" width="2904.3" height="2902.9"/>
						</defs>
						<clipPath id="SVGID_6_">
							<use xlink:href="#SVGID_5_"  style="overflow:visible;"/>
						</clipPath>
						<g class="st2">
							<rect x="-1198.7" y="-1198.7" class="st3" width="2902.9" height="2902.9"/>
						</g>
					</g>
					<g>
						<defs>
							<rect id="SVGID_7_" x="-760.7" y="-722.4" width="2466.3" height="2171.5"/>
						</defs>
						<clipPath id="SVGID_8_">
							<use xlink:href="#SVGID_7_"  style="overflow:visible;"/>
						</clipPath>
						<g class="st4">
							<g>
								<defs>
									<rect id="SVGID_9_" x="-760.7" y="-722.4" width="2466.3" height="2171.5"/>
								</defs>
								<clipPath id="SVGID_10_">
									<use xlink:href="#SVGID_9_"  style="overflow:visible;"/>
								</clipPath>
								<g class="st5">
									
										<image style="overflow:visible;enable-background:new    ;" width="446" height="393" xlink:href="7B0300A17AC20F45.png"  transform="matrix(5.5257 0 0 5.5257 -759.7017 -722.42)">
									</image>
								</g>
							</g>
						</g>
					</g>
					<g>
						<defs>
							<rect id="SVGID_11_" x="-1010.2" y="-603.4" width="2375.6" height="2290.6"/>
						</defs>
						<clipPath id="SVGID_12_">
							<use xlink:href="#SVGID_11_"  style="overflow:visible;"/>
						</clipPath>
						<g class="st6">
							
								<image style="overflow:visible;enable-background:new    ;" width="430" height="415" xlink:href="7B0300A17AC20F47.png"  transform="matrix(5.5197 0 0 5.5197 -1009.0328 -603.36)">
							</image>
						</g>
					</g>
					<g>
						<defs>
							<rect id="SVGID_13_" x="-721" y="-166.8" width="1621.5" height="1621.5"/>
						</defs>
						<clipPath id="SVGID_14_">
							<use xlink:href="#SVGID_13_"  style="overflow:visible;"/>
						</clipPath>
						<g class="st7">
							<g>
								<defs>
									<rect id="SVGID_15_" x="-721" y="-166.8" width="1621.5" height="1621.5"/>
								</defs>
								<clipPath id="SVGID_16_">
									<use xlink:href="#SVGID_15_"  style="overflow:visible;"/>
								</clipPath>
								<g class="st8">
									
										<image style="overflow:visible;enable-background:new    ;" width="294" height="294" xlink:href="7B0300A17AC20F42.png"  transform="matrix(5.5157 0 0 5.5157 -721.01 -166.79)">
									</image>
								</g>
							</g>
						</g>
					</g>
					<g>
						<defs>
							<rect id="SVGID_17_" x="-494.2" y="99.7" width="1309.7" height="1309.7"/>
						</defs>
						<clipPath id="SVGID_18_">
							<use xlink:href="#SVGID_17_"  style="overflow:visible;"/>
						</clipPath>
						<g class="st9">
							<g>
								<defs>
									<rect id="SVGID_19_" x="-494.2" y="99.7" width="1309.7" height="1309.7"/>
								</defs>
								<clipPath id="SVGID_20_">
									<use xlink:href="#SVGID_19_"  style="overflow:visible;"/>
								</clipPath>
								<g class="st10">
									
										<image style="overflow:visible;enable-background:new    ;" width="237" height="238" xlink:href="7B0300A17AC20F43.png"  transform="matrix(5.5032 0 0 5.5032 -491.4684 99.68)">
									</image>
								</g>
							</g>
						</g>
					</g>
					<g>
						<defs>
							<rect id="SVGID_21_" x="-579.3" y="184.7" width="1292.7" height="1253"/>
						</defs>
						<clipPath id="SVGID_22_">
							<use xlink:href="#SVGID_21_"  style="overflow:visible;"/>
						</clipPath>
						<g class="st11">
							
								<image style="overflow:visible;enable-background:new    ;" width="235" height="228" xlink:href="7B0300A17AC20F4D.png"  transform="matrix(5.4959 0 0 5.4959 -578.6507 184.73)">
							</image>
						</g>
					</g>
					<g>
						<defs>
							<rect id="SVGID_23_" x="-1198.7" y="-1198.7" width="2904.3" height="2902.9"/>
						</defs>
						<clipPath id="SVGID_24_">
							<use xlink:href="#SVGID_23_"  style="overflow:visible;"/>
						</clipPath>
						<g class="st12">
							<g class="st13">
								<g>
									<defs>
										<rect id="SVGID_25_" x="-1157.6" y="-869.8" width="2313.2" height="1190.6"/>
									</defs>
									<clipPath id="SVGID_26_">
										<use xlink:href="#SVGID_25_"  style="overflow:visible;"/>
									</clipPath>
									<g class="st14">
										<g>
											<defs>
												<rect id="SVGID_27_" x="-1157.6" y="-869.8" width="2313.2" height="1190.6"/>
											</defs>
											<clipPath id="SVGID_28_">
												<use xlink:href="#SVGID_27_"  style="overflow:visible;"/>
											</clipPath>
											<g class="st15">
												
													<image style="overflow:visible;enable-background:new    ;" width="419" height="216" xlink:href="7B0300A17AC20F4F.png"  transform="matrix(5.5125 0 0 5.5125 -1155.7587 -869.83)">
												</image>
											</g>
										</g>
									</g>
								</g>
							</g>
						</g>
					</g>
				</g>
			</g>
		</g>
	</g>
</g>
</svg>
