<svg id="Layer_1" data-name="Layer 1" xmlns="http://www.w3.org/2000/svg" viewBox="0 0 396.25 302.76"><defs><style>.cls-1{fill:#6dcff6;}.cls-1,.cls-10,.cls-11,.cls-2,.cls-3,.cls-4,.cls-5,.cls-6,.cls-7,.cls-8,.cls-9{fill-rule:evenodd;}.cls-2{fill:#60269e;}.cls-3{fill:#ec008c;}.cls-4{fill:#00b08d;}.cls-5{fill:#005baa;}.cls-6{fill:#fff;}.cls-7{fill:#0095da;}.cls-8{fill:#f17db1;}.cls-9{fill:#fd0;}.cls-11{fill:#939598;}.cls-12{fill:none;stroke:#fff;stroke-width:0.38px;}</style></defs><title>sansiri-joy</title><g id="Desktop"><g id="Group-10"><g id="logo-whale"><g id="Group"><path id="Path" class="cls-1" d="M329.57,113.64c-.09-2.75-2.67-9-3.2-11.64-1.42-6.57-4.8-13.23-7.2-19.9-2.49-7-5.07-12.08-9.25-16.43-3.11-3.29-7.29-5.78-9.69-5.33-7,1.42-2.13,7.1-1.6,10,.45,2.75-5.07,1.06-4.44,4.79.89,5.42,7.46,8.8,12.18,12.8,3.91,3.37,7.91,3.55,11.82,7.81,3.47,3.74,6.49,7.73,10.4,16.17.8,2,1.16,2.31,1,1.69"/><path class="cls-1" d="M348.15,58.56c.27-4.62-6.4-6.84-10.58-5.51-9.15,2.84-9.51,10-9.87,15.19-.35,4.89,2.85,41.23,3,36.43a51.77,51.77,0,0,1,5.6-22.92C338.28,78,349.4,67.18,349.84,63c.09-1.15,1.51-4.35-1.69-4.44"/><path class="cls-1" d="M394,74.82a11.68,11.68,0,0,0-6-5.15,29.49,29.49,0,0,0-18.22-.45c-7.21,2.22-15.38,4.89-20.36,9.51a54.25,54.25,0,0,0-11.74,15.72c-3.2,6-4.27,12.17-5.33,18.39-.36,2.13-1.16,4.27-1.51,6.4-.09.53-.36,2.75.88,2.31.09-.09.18.35.27.35a7.52,7.52,0,0,1,.09-2.57c.18-1.16.53-2.4.71-3.65a20.48,20.48,0,0,1,.89-3.82c.09-.26.18-1,.27-1.24.26-1,.53-2,.8-3a19.1,19.1,0,0,1,1.33-3.73c.53-1.25.89-3,1.87-3.91a25.51,25.51,0,0,1,6.58-6.13,29.45,29.45,0,0,1,9.51-4,22.65,22.65,0,0,1,8.09-.44,56.8,56.8,0,0,1,6.76,1.6c2.49.71,6.13,2.75,8.62,1.6,3.11-1.43,1.87-3.91,4-5.78s7.56.09,10.67-1a5.42,5.42,0,0,0,4.09-5c.09-2-1.25-4.18-2.22-6"/><path class="cls-2" d="M211.77,109.82c2.49,15.1,34.41,60.5,36.45,76.76-8.18-9.06-37.6-65.92-39.29-78,1.06,1.06,2.84,1.51,3.91,2.4"/><path class="cls-3" d="M269.29,107.24c-10.67,1.69-22.05-1.06-33.25,3.47-10.75,4.26-20.71,9.77-31.2,14.57-8.8,4-17.07,8.62-26.05,12.26-5.34,2.22-14.32,10-19.65,8.53,1.87-21.77,20.8-51,41.25-56.77,19-5.33,55.83,1.6,68.9,17.94"/><path class="cls-4" d="M209.37,87.43c2.67-.71,4.89.09,7.56.18A23,23,0,0,1,224.57,89c3.47,1.25,7.12,2.4,10.58,3.82A40.67,40.67,0,0,1,244,97.12c2.76,1.86,8.36,7.55,8.09,11.19s-4.35,3-7,1.87c-6.67-2.76-14.22-10.49-20.54-13.86-2.84-1.51-5.77-3.29-8.44-5-1.42-.89-5.07-3.82-6.94-2.66-3.11,1.86,5.6,13.77,6.58,16.08,2.4,5.42,5.43,12.35.71,17.5-5,5.42-13.33.44-15.38-5.24a33.51,33.51,0,0,1,3-28.25c-1.16-.63-3.83,2.84-4.63,3.73a21.61,21.61,0,0,0-4.62,9c-.89,3-1,6.4-1.42,9.51-.63,4.08-2,8.17-2.94,12.17-1.51,5.86-4.18,12-9.78,15s-7.2-3.82-7.38-8.17c-.62-13.68,10.85-27.28,20.72-35.8,4.27-3.65,4-3.91,9.07-5.6.89-.27,5.24-1.07,6.22-1.16"/><path class="cls-2" d="M204.84,88.23c2.93,1.07,6.31-3.11.89-3.46-5.78-.36-3,6.31-.18,3.64"/><path class="cls-5" d="M168.39,174.94c.8-6,4.44-9.59,8.8-13.24,5.78-4.79,11-6.66,18.31-8.35,6.31-1.51,14.49-5.68,21.07-3.82A29.53,29.53,0,0,1,205,167.21c-9,6.4-20.89,12.35-31.91,13.68,1.6,3.82,5.6,15.64,13.69,18.75,10.4,3.91,20.71-4.35,27.74-10.84,4-3.73,7.91-7.46,11.56-11.55,4.35-5,7.73-10.93,11.82-16.17,10.58-13.59,21.78-25.05,37.16-33.22C295.16,117.28,319.7,115,342.2,116c12.18.53,26.84,3.38,36,12.17,9,8.62,10.23,23.72,12.18,35.09,2.67,14.75-1,25.59-2,40.78-.36,5.6-3.91,15.1-10.58,15.55-.27-.18-13.34,1.06-13.25.8-9.51-.09-39.56.18-49-1-5.95-.71-13.69-2.58-19.38-1.78,5.16,3.82,12.36,5.51,18.49,7a182.17,182.17,0,0,0,28.45,5.16,223.37,223.37,0,0,0,26.5.62c2.13-.09,11.38-1.6,9.51,2.4-.44.88-2.93,2-3.82,2.57-5.07,2.76-11.38,3.73-17,4.71-9,1.51-18.05,3.38-27.21,3.47-8.89.08-17.87-.36-26.76-.89,1.25,2.84,1.25,6.57-2,10.92-7.12,9.42-22.23,11.2-21.87,6.85.35-4.18,6.4-13,10.58-18.84-4.18-.44-8.27-.89-12.45-1.51-2.31,1.07-3.91,4.44-8.36,6.75-12.53,6.75-4.53,3.65-26.22,9.42-2.32.62-12.27,1.07-14.59,1.42a37.81,37.81,0,0,1-7.91-.35c-1.69-.27-5.6-1-6-1.78C214.26,253,218,248,220,245.84c9-9.78,20.27-10.4,28.27-11.82-31.83-5.33-48-6-68.45-23.45-8.18-6.93-11.56-17.95-11.83-28.43-8.18,1.51-17,.35-25.07-1.69-7.38-1.87-14.31-3.64-21.07-7.11-5.87-3-11-5.42-14.58-11.46,21.07-3.64,43.12,2,61.17,13.06"/><path class="cls-6" d="M285.47,214.56c-.44.18-1.86-2.22-4.35-2a10.81,10.81,0,0,0-3.91.8c-1.16.36-.09-2,2.57-2.58a4.57,4.57,0,0,1,4.89,1.78c1.07,1.24,1.34,1.87.8,2"/><path class="cls-7" d="M291.34,43.81c-.18-2.75,1-4.71,2.58-6.75,2-2.66,4.18-4,7.29-5.51,2.58-1.24,5.87-3.91,8.89-3.73a13.24,13.24,0,0,1-3.38,9A34.35,34.35,0,0,1,294,46c1.07,1.51,4,6.4,7.91,6.93,5,.71,8.71-3.91,11.2-7.55,1.43-2,2.76-4.08,4-6.22,1.43-2.66,2.32-5.59,3.65-8.35,3.29-7.11,7.2-13.24,13.16-18.3,7.82-6.66,18.49-10,28.45-11.9,5.42-1,12.18-1.16,17.16,1.86,4.8,2.93,6.84,9.51,8.89,14.31,2.57,6.3,2.13,11.37,3.11,18.21.35,2.49-.27,7-3.11,7.9-.09-.08-5.78,1.78-5.78,1.69-4.18.89-17.52,4-21.78,4.36-2.76.26-6.32.17-8.72,1.15,2.67,1.16,6,1.24,8.8,1.33A92.12,92.12,0,0,0,374,50.92a105.62,105.62,0,0,0,11.83-2.31c.89-.27,4.89-1.87,4.44.09-.09.44-1.15,1.24-1.42,1.51a25.43,25.43,0,0,1-7,3.73,70.5,70.5,0,0,1-11.65,4.18c-3.91.88-7.91,1.6-11.91,2.22.8,1.15,1.86,1,2.58,3.37,1.6,5.24-1.69,13.77-3.38,10.49-.89-1.69-6.4-10-5.16-13.06-1.87.26-3.73.44-5.69.53-.89.71-1.33,2.31-3,3.82-4.89,4.18-1.6,2-10.67,6.75-1,.53-5.34,1.69-6.31,2a17.45,17.45,0,0,1-3.56.63c-.8,0-2.58.09-2.84-.18-.8-1,.35-3.55,1-4.71,3-5.15,7.92-6.57,11.29-8-14.58.89-21.78,2.23-32.53-3.55-4.27-2.22-6.85-6.75-8-11.37a26.89,26.89,0,0,1-11.29,1.78,42.42,42.42,0,0,1-10-1.07c-2.94-.71-5.43-1.33-7.56-3.64,9-3.82,19.29-3.47,28.27-.36"/><path class="cls-6" d="M348.15,49.05c-.18.18-1.06-.8-2.13-.44a4.11,4.11,0,0,0-1.6.8c-.45.27-.27-.89.8-1.42a1.92,1.92,0,0,1,2.31.18c.62.53.8.71.62.88"/><path class="cls-3" d="M40.63,237c.44-4,2.76-6.48,5.6-9,3.73-3.29,7.2-4.62,12-5.95,4.18-1.16,9.52-4.09,14-3-.89,4.7-5.24,10.57-6.58,12.79S52,242.1,47.3,239.88c-1.34.8-1.6,7.29,7.38,10.84s12.53-1,17.07-5.42c2.57-2.57,5.15-5.15,7.46-7.9,2.85-3.38,4.89-7.38,7.56-11,6.76-9.33,14-17.15,24.09-22.83,13.16-7.47,29.43-9.51,44.37-9.33,8.09.09,18,1.69,24.18,7.37,6.13,5.51,7.29,15.55,8.89,23.1,2,9.77-.09,17.06-.53,27.19-.18,3.73-2.31,10.12-6.67,10.57-.18-.09-8.89,1-8.8.8-6.31.18-26.32,1-32.63.35-4-.35-9.16-1.42-13-.8,3.56,2.4,8.36,3.38,12.45,4.27a125.65,125.65,0,0,0,19,2.84,143.71,143.71,0,0,0,17.61-.09c1.42-.09,7.55-1.24,6.4,1.42-.27.63-2,1.43-2.49,1.78-3.29,2-7.47,2.75-11.21,3.47-5.95,1.24-11.91,2.57-18,2.84-6,.26-11.92.09-17.78,0,.89,1.86,3.64,4.8,1.6,7.73-4.54,6.39-10.58,8.61-10.32,5.68.18-2.75-2.66-9.95-.09-13.86-2.75-.17-5.51-.44-8.35-.71-1.51.8-1.42,4.62-4.27,6.22-8.18,4.8-.71,1.51-14.94,5.78-1.51.44-8.09,1-9.69,1.24a33.81,33.81,0,0,1-5.24,0c-1.16-.18-3.74-.53-4-1.07-.89-1.68,1.51-5.06,2.75-6.48C85.88,277.2,90,276,95.31,274.8c-21.25-2.85-32-3-46.06-14.22-5.6-4.44-8.09-11.64-8.44-18.65-5.43,1.15-11.29.62-16.72-.63A65.31,65.31,0,0,1,9.87,237c-4-1.87-7.47-3.38-9.87-7.28,13.69-3.11,28.45.26,40.63,7.19"/><path class="cls-6" d="M113.8,256.76a2.15,2.15,0,0,0,1,1.78,1.77,1.77,0,0,1,1.06-.62,3.78,3.78,0,0,1-.71-1.25c-.09-.44.09-1.42.54-1.33.26.09.44.45.44,1.16a3.43,3.43,0,0,0,0,1s.09.27.18.18a2.6,2.6,0,0,1,1.42-.09,3.27,3.27,0,0,1-.18-2c.45-.53.71-.09.71.35s-.17,1.25-.17,1.78a5.53,5.53,0,0,1,1.6,1c.8.8,1,1.15.62,1.33s-1.34-1.42-3-1.15a5.77,5.77,0,0,0-2.49.71c-.45.17-.45-.27-.09-.8a2.75,2.75,0,0,1-1.51-1.51c-.18-1,.53-.71.62-.45"/><path class="cls-8" d="M180.48,262.27c.26-.09.09-7.11-2.14-5.15s-1.86,2.66-1.86,2.66-1.25-3.37-2.76-2.84-6.4,6.4-6.4,6.4,11.11-.27,13.16-1.07"/><path class="cls-8" d="M178.34,269.47s.09,2.75-2.49,2.93-6.75-2.4-6.75-2.4Z"/><path class="cls-9" d="M93.17,223.63c3.29,1.42,11.83-1.34,12-6,.18-5.95-8.8-5.77-11.38-1.51,2.85-10.13-22.31-5.51-9.51,3.2.27-.09.27-.18.09-.18C73.44,221,73.26,239,86.86,229.67c1.07,4.71,6.31,8,10.49,5.68,10.94-6.13-4.18-11.72-4.18-11.72"/><path class="cls-10" d="M122.07,294.61c-3.83-.89-8-4.18-11.29-6.49-4-2.66-7.92-5-11.47-8.08-4.36-3.91-9.07-6.93-13.16-11.19-3.47-3.56-7.38-7.56-9.87-11.73-2.84-4.62-5.24-10.49-4-15.55.89-3.82,3.2-5,6.58-7-5.51,2.13-8.09,3.56-8.18,9.69-.09,5.68,2.13,11.1,5.78,16a100.76,100.76,0,0,0,27.91,25.85c3.29,1.95,6.67,3.73,9.87,5.77,2.94,1.78,6.67,4,10.23,3.91a7,7,0,0,1-3.38-1.24"/><path class="cls-10" d="M145.63,280.39c2.75,2.05,2.31,3,3.91,6.4,1,2,2.4,6.84,1,9-1.6,2.4-9.16,4-11.92,4.71a75,75,0,0,1-10.84,2.22c-7.83.89-8.72-7.46-8.09-13.59.71-7.73,9.51-6.57,15.38-7.55,3.46-.53,6.93-2.22,10.58-1.16"/><path class="cls-11" d="M136.2,296.83c-.44.53-1.51.44-2.13.44a5.74,5.74,0,0,1-4.36-2.13c-2-2.49-1.24-4.35.71-6.48,2.49-2.67,9.34-3.73,11,.44,1.06,2.84-.18,5.33-2.4,7-.89.62-2.85,1.42-3.91.8"/><path class="cls-12" d="M135.4,298.43c-2.75.44-6-.27-7.55-2.93-1.34-2.4.08-5.69,1.86-7.47a9,9,0,0,1,7.83-2.22,6.62,6.62,0,0,1,5.6,5.42,5.84,5.84,0,0,1-3,6.4,5.46,5.46,0,0,1-3.11.62,5.63,5.63,0,0,0-1.95.27"/><path class="cls-6" d="M122,288c-.09-1.51,1.51-1.86,2.84-2.13s4.09-.35,2.94,1.78c-1,1.78-6.49,2.31-5.6-.62"/><path class="cls-10" d="M150.43,287.15c-.27-.27-1.78-3.74-2.23-2.67-.35.89,1.16,3.47,2.23,3.2.18-1.16-1-2-1.43-2.75"/><path class="cls-10" d="M119,290.7c1,.18,1.43,4.35.63,4.89-1.07.71-1.6-4.62-.8-4.89.08.27.35.36.53.53"/></g></g></g></g></svg>